<svg width="454" height="454" xmlns="http://www.w3.org/2000/svg" xmlns:xlink="http://www.w3.org/1999/xlink" overflow="hidden"><defs><clipPath id="clip0"><rect x="0" y="0" width="454" height="454"/></clipPath></defs><g clip-path="url(#clip0)"><path d="M368.875 94.5833 288.479 94.5833 288.479 70.9375C288.479 52.4938 273.819 37.8333 255.375 37.8333L198.625 37.8333C180.181 37.8333 165.521 52.4938 165.521 70.9375L165.521 94.5833 85.125 94.5833C74.7208 94.5833 66.2083 103.096 66.2083 113.5L66.2083 132.417 387.792 132.417 387.792 113.5C387.792 103.096 379.279 94.5833 368.875 94.5833ZM193.896 70.9375C193.896 68.1 195.788 66.2083 198.625 66.2083L255.375 66.2083C258.212 66.2083 260.104 68.1 260.104 70.9375L260.104 94.5833 193.896 94.5833 193.896 70.9375Z" fill="#FFC000"/><path d="M94.5833 397.25C94.5833 407.654 103.096 416.167 113.5 416.167L340.5 416.167C350.904 416.167 359.417 407.654 359.417 397.25L359.417 151.333 94.5833 151.333 94.5833 397.25ZM288.479 179.708 316.854 179.708 316.854 387.792 288.479 387.792 288.479 179.708ZM212.812 179.708 241.187 179.708 241.187 387.792 212.812 387.792 212.812 179.708ZM137.146 179.708 165.521 179.708 165.521 387.792 137.146 387.792 137.146 179.708Z" fill="#FFC000"/></g></svg>