<svg width="454" height="454" xmlns="http://www.w3.org/2000/svg" xmlns:xlink="http://www.w3.org/1999/xlink" overflow="hidden"><defs><clipPath id="clip0"><rect x="0" y="0" width="454" height="454"/></clipPath></defs><g clip-path="url(#clip0)"><path d="M47.2917 160.792 47.2917 61.4792 78.9771 93.1646C110.662 64.7896 152.752 47.2917 198.625 47.2917 297.938 47.2917 378.333 127.687 378.333 227 378.333 326.312 297.938 406.708 198.625 406.708 148.969 406.708 104.042 386.373 71.4104 354.215L111.608 314.017C133.835 336.244 164.575 349.958 198.625 349.958 266.252 349.958 321.583 294.627 321.583 227 321.583 159.373 266.252 104.042 198.625 104.042 168.358 104.042 140.456 114.919 119.175 133.363L146.604 160.792 47.2917 160.792Z" fill="#FFC000"/></g></svg>