<svg width="454" height="454" xmlns="http://www.w3.org/2000/svg" xmlns:xlink="http://www.w3.org/1999/xlink" overflow="hidden"><defs><clipPath id="clip0"><rect x="0" y="0" width="454" height="454"/></clipPath></defs><g clip-path="url(#clip0)"><path d="M160.792 113.5 189.167 113.5 189.167 184.438 160.792 184.438Z" fill="#FFC000"/><path d="M312.125 203.354 141.875 203.354 141.875 94.5833 312.125 94.5833 312.125 203.354ZM227 326.312C200.99 326.312 179.708 305.031 179.708 279.021 179.708 253.01 200.99 231.729 227 231.729 253.01 231.729 274.292 253.01 274.292 279.021 274.292 305.031 253.01 326.312 227 326.312ZM368.875 66.2083 312.125 66.2083 141.875 66.2083 113.5 66.2083 66.2083 113.5 66.2083 368.875C66.2083 379.279 74.7208 387.792 85.125 387.792L368.875 387.792C379.279 387.792 387.792 379.279 387.792 368.875L387.792 85.125C387.792 74.7208 379.279 66.2083 368.875 66.2083Z" fill="#FFC000"/><path d="M212.812 264.833 241.187 264.833 241.187 293.208 212.812 293.208Z" fill="#FFC000"/></g></svg>